<svg t="1711775565513" class="icon" viewBox="0 0 1024 1024" version="1.1" xmlns="http://www.w3.org/2000/svg" p-id="1498" width="128" height="128"><path d="M906.088 1023.81H119.265l71.464-801.89h142.938c0.586-8.756 1.03-17.207 1.736-25.636 4.516-53.916 24.075-101.514 60.927-141.348C424.433 24.56 459.074 5.953 500.687 2.33c40.582-3.534 76.879 8.425 108.613 33.607 42.141 33.441 66.577 77.726 76.95 129.989 3.278 16.514 4.908 33.354 7.302 50.043 0.286 1.997 0.63 3.987 1.026 6.473h6.28c42.802 0 85.602 0.074 128.403-0.105 4.769-0.02 6.303 1.268 6.721 6.127 3.893 45.165 8.047 90.307 12.174 135.451 3.924 42.94 7.983 85.868 11.84 128.814 3.309 36.837 6.394 73.695 9.62 110.538 3.6 41.088 7.245 82.173 10.874 123.259 3.537 40.066 6.848 80.155 10.675 120.195 4.751 49.702 10.065 99.35 14.8 149.054 0.865 9.102 0.123 18.357 0.123 28.035zM351.482 221.459h329.494c0-1.423 0.123-2.586-0.018-3.716-1.928-15.37-3.013-30.913-6.007-46.076-9.306-47.116-30.877-87.691-68.17-118.584-39.49-32.71-84.307-42.65-133.524-26.387-36.482 12.056-62.962 37.117-84.147 68.374-25.772 38.022-32.718 81.643-37.628 126.389z m164.687 530.505c-2.026 11.143-3.96 21.501-5.79 31.878-6.989 39.647-25.795 72.157-58.242 96.402-5.172 3.864-10.552 7.45-16.14 11.38l18.563 28.75c1.17-0.58 1.95-0.908 2.673-1.335 23.734-14.006 43.408-32.27 58.373-55.512 16.876-26.209 24.087-55.745 29.577-85.857 1.546-8.48 2.623-17.045 3.902-25.477h83.28v165.838h32.759V751.8h63.264v-31.652h-62.949V608.54h53.394V576.9h-65.107c14.942-26.88 27.935-53.717 38.227-82.157l-31.354-11.175c-0.828 2.129-1.456 3.693-2.047 5.272-10.692 28.574-22.886 56.47-37.196 83.442-1.937 3.65-4.016 4.996-8.188 4.981-47.745-0.157-95.491-0.1-143.238-0.1h-6.026v31.68H518.8v111.748h-63.295v31.372l60.664 0.001zM304.5 771.55l57.754-21.462v5.255c0 36.32 0.001 72.64-0.003 108.96-0.001 1.534-0.002 3.07-0.087 4.602-0.549 9.838-5.928 15.398-15.836 15.808-5.264 0.218-10.561-0.2-15.837-0.458-6.765-0.33-13.523-0.789-20.816-1.225 2.22 10.466 4.238 20.439 6.576 30.336 0.243 1.028 2.38 2.286 3.643 2.294 14.491 0.086 29.008 0.443 43.47-0.248 18.524-0.883 29.94-11.45 33.047-29.657 0.683-4.002 0.665-8.153 0.67-12.236 0.042-44.845 0.065-89.69-0.049-134.536-0.01-3.543 1.011-5.37 4.32-6.944 9.374-4.457 18.221-10.126 27.804-14.017 12.188-4.947 17.705-12.6 15.254-25.982-0.971-5.302-0.159-10.93-0.159-16.909-16.092 8.61-31.248 16.72-46.68 24.974v-93.48h47.172v-32.492h-47.846v-84.776H362.27v85.038h-59.376v32.532h58.756c0.282 1.03 0.53 1.511 0.53 1.992 0.034 34.443 0.09 68.886-0.072 103.33-0.008 1.436-1.755 3.588-3.195 4.172-7.882 3.195-15.853 6.203-23.92 8.898-12.718 4.248-25.535 8.195-38.897 12.455 2.74 11.008 5.469 21.978 8.403 33.776z m213.674-286.61l-28.052 13.643c15.98 25.36 31.629 50.19 47.473 75.338 8.554-4.218 17.473-8.619 27.607-13.617l-47.028-75.364zM642.07 359.184c9.812-20.546 19.464-40.758 29.17-61.079-20.606-4.341-36.981 4.013-43.372 21.761-5.685 15.792-0.061 31.796 14.202 39.318z m8.933 6.22c20.277 5.475 37.232-3.388 43.535-22.06 5.284-15.659-0.738-32.77-13.658-38.12l-29.877 60.18z m-288.934-67.44l29.513 61.557c14.61-13.133 17.779-30.36 8.805-45.866-7.7-13.31-24.603-20.354-38.318-15.69z m-15.733 9.118c-14.197 12.476-15.598 32.393-3.649 47.59 9.078 11.547 23.607 15.96 32.397 9.71-9.51-18.96-19.033-37.94-28.748-57.3z" p-id="1499" fill="#ffffff"></path><path d="M631.808 720.073h-79.306V608.977h79.306v111.096z" p-id="1500" fill="#ffffff"></path></svg>